<svg xmlns="http://www.w3.org/2000/svg" width="20.314" height="16.745" viewBox="0 0 20.314 16.745">
  <path id="cart" d="M-487.026,1298.976a1.548,1.548,0,0,1,.906-1.409l-5.235.059a1.548,1.548,0,0,1,.791,1.35,1.548,1.548,0,0,1-1.548,1.547,1.548,1.548,0,0,1-1.548-1.547,1.547,1.547,0,0,1,.761-1.333,1.723,1.723,0,0,1-.761-.442,15.823,15.823,0,0,1-.471-2.583s-1.723-8.81-2.117-9.347-4.12-.677-4.12-.677v-.817a24.771,24.771,0,0,1,4.586.525c.764.372,1.04,2.313,1.04,2.313h14.688l-3.721,7.655-9.066.3v1.909h9.719l-.521,1.055-1.226.014a1.548,1.548,0,0,1,.938,1.423,1.548,1.548,0,0,1-1.548,1.547A1.548,1.548,0,0,1-487.026,1298.976Z" transform="translate(500.367 -1283.779)"/>
</svg>
