<svg xmlns="http://www.w3.org/2000/svg" width="19.001" height="19.001" viewBox="0 0 19.001 19.001">
  <path id="exclaimation" d="M-490.5,1301a9.511,9.511,0,0,1-9.5-9.5,9.511,9.511,0,0,1,9.5-9.5,9.511,9.511,0,0,1,9.5,9.5A9.511,9.511,0,0,1-490.5,1301Zm.034-5.07a.886.886,0,0,0-.647.273.856.856,0,0,0-.275.648.872.872,0,0,0,.275.647.92.92,0,0,0,.647.266.92.92,0,0,0,.647-.266.872.872,0,0,0,.275-.647.856.856,0,0,0-.275-.648A.889.889,0,0,0-490.466,1295.931Zm-.922-10.737s.124,8.971.175,9.118h1.337c-.061-.144.058-9.118.058-9.118Z" transform="translate(500 -1282)"/>
</svg>
