<svg xmlns="http://www.w3.org/2000/svg" width="19.001" height="19.001" viewBox="0 0 19.001 19.001">
  <path id="questionmark" d="M-490.5,1301a9.511,9.511,0,0,1-9.5-9.5,9.511,9.511,0,0,1,9.5-9.5,9.511,9.511,0,0,1,9.5,9.5A9.511,9.511,0,0,1-490.5,1301Zm.028-4.685a.885.885,0,0,0-.647.274.856.856,0,0,0-.275.648.872.872,0,0,0,.275.647.92.92,0,0,0,.647.266.92.92,0,0,0,.647-.266.872.872,0,0,0,.275-.647.856.856,0,0,0-.275-.648A.888.888,0,0,0-490.472,1296.315Zm-.008-9.264a2.6,2.6,0,0,1,.739.1,1.848,1.848,0,0,1,.614.312,1.5,1.5,0,0,1,.419.515,1.559,1.559,0,0,1,.153.706,1.745,1.745,0,0,1-.211.85,4.012,4.012,0,0,1-.527.739c-.214.238-.445.473-.689.7a7.827,7.827,0,0,0-.689.718,3.959,3.959,0,0,0-.527.8,2.135,2.135,0,0,0-.211.958,4.13,4.13,0,0,0,.058.685,3.62,3.62,0,0,0,.133.56h1.337a4.962,4.962,0,0,1-.183-.526,2.459,2.459,0,0,1-.092-.693,1.616,1.616,0,0,1,.216-.822,3.809,3.809,0,0,1,.544-.718c.22-.231.459-.464.71-.693a7.038,7.038,0,0,0,.709-.751,3.978,3.978,0,0,0,.544-.884,2.68,2.68,0,0,0,.215-1.1,2.558,2.558,0,0,0-.24-1.137,2.334,2.334,0,0,0-.66-.818,2.937,2.937,0,0,0-.976-.494,4.147,4.147,0,0,0-1.187-.166,4.91,4.91,0,0,0-2.632.8v1.462A3.236,3.236,0,0,1-490.48,1287.051Z" transform="translate(500 -1282)"/>
</svg>
